<mxfile host="app.diagrams.net" modified="2023-11-14T12:33:13.669Z" agent="Mozilla/5.0 (Windows NT 10.0; Win64; x64) AppleWebKit/537.36 (KHTML, like Gecko) Chrome/119.0.0.0 Safari/537.36" etag="lMwjqOAxh6OgYDn3APca" version="22.1.0" type="device">
  <diagram name="Page-1" id="N1Z2TdDi0omYeHkSOZxo">
    <mxGraphModel dx="954" dy="1712" grid="1" gridSize="10" guides="1" tooltips="1" connect="1" arrows="1" fold="1" page="1" pageScale="1" pageWidth="850" pageHeight="1100" math="0" shadow="0">
      <root>
        <mxCell id="0" />
        <mxCell id="1" parent="0" />
        <mxCell id="pkJXzs30n1liZLWo8Acw-6" value="" style="rounded=0;whiteSpace=wrap;html=1;fillColor=#000000;fontColor=#ffffff;strokeColor=#3A5431;gradientColor=#FFC042;" vertex="1" parent="1">
          <mxGeometry x="120" y="-31" width="995" height="660" as="geometry" />
        </mxCell>
        <mxCell id="pkJXzs30n1liZLWo8Acw-7" value="&lt;font color=&quot;#ffffff&quot;&gt;&amp;lt;&amp;lt;sytem&amp;gt;&amp;gt;&lt;/font&gt;" style="text;html=1;strokeColor=none;fillColor=none;align=center;verticalAlign=middle;whiteSpace=wrap;rounded=0;" vertex="1" parent="1">
          <mxGeometry x="590" y="-30" width="60" height="30" as="geometry" />
        </mxCell>
        <mxCell id="pkJXzs30n1liZLWo8Acw-8" value="&lt;p style=&quot;line-height: 120%;&quot;&gt;&lt;font color=&quot;#fcfcfc&quot;&gt;Loop platform&lt;/font&gt;&lt;/p&gt;" style="text;html=1;align=center;verticalAlign=middle;whiteSpace=wrap;rounded=0;fillColor=#330000;strokeColor=#140F00;" vertex="1" parent="1">
          <mxGeometry x="570" width="100" height="30" as="geometry" />
        </mxCell>
        <mxCell id="pkJXzs30n1liZLWo8Acw-9" value="" style="rounded=0;whiteSpace=wrap;html=1;gradientColor=#FFC042;fillColor=#080600;" vertex="1" parent="1">
          <mxGeometry x="150" y="70" width="140" height="550" as="geometry" />
        </mxCell>
        <mxCell id="pkJXzs30n1liZLWo8Acw-10" value="&lt;font color=&quot;#fcfcfc&quot;&gt;&amp;lt;&amp;lt;subsystem&amp;gt;&amp;gt;&lt;/font&gt;" style="text;html=1;strokeColor=none;fillColor=none;align=center;verticalAlign=middle;whiteSpace=wrap;rounded=0;" vertex="1" parent="1">
          <mxGeometry x="190" y="70" width="60" height="30" as="geometry" />
        </mxCell>
        <mxCell id="pkJXzs30n1liZLWo8Acw-11" value="&lt;font color=&quot;#fcfcfc&quot;&gt;Front end&lt;/font&gt;" style="text;html=1;strokeColor=none;fillColor=none;align=center;verticalAlign=middle;whiteSpace=wrap;rounded=0;" vertex="1" parent="1">
          <mxGeometry x="190" y="90" width="60" height="30" as="geometry" />
        </mxCell>
        <mxCell id="pkJXzs30n1liZLWo8Acw-13" value="" style="rounded=0;whiteSpace=wrap;html=1;fillColor=#080600;gradientColor=#FFC042;" vertex="1" parent="1">
          <mxGeometry x="290" y="60" width="740" height="260" as="geometry" />
        </mxCell>
        <mxCell id="pkJXzs30n1liZLWo8Acw-14" value="" style="rounded=0;whiteSpace=wrap;html=1;strokeColor=#000000;fillColor=#000000;gradientColor=#FFC042;" vertex="1" parent="1">
          <mxGeometry x="920" y="67.5" width="110" height="410" as="geometry" />
        </mxCell>
        <mxCell id="pkJXzs30n1liZLWo8Acw-18" value="&lt;p style=&quot;margin:0px;margin-top:6px;text-align:center;&quot;&gt;&lt;b&gt;&amp;lt;&amp;lt;component&amp;gt;&amp;gt;&lt;/b&gt;&lt;/p&gt;&lt;p style=&quot;margin:0px;margin-top:6px;text-align:center;&quot;&gt;&lt;b&gt;Agents managment&lt;/b&gt;&lt;/p&gt;&lt;p style=&quot;margin:0px;margin-top:6px;text-align:center;&quot;&gt;&lt;b&gt;&lt;br&gt;&lt;/b&gt;&lt;/p&gt;" style="align=left;overflow=fill;html=1;dropTarget=0;whiteSpace=wrap;" vertex="1" parent="1">
          <mxGeometry x="301" y="102" width="180" height="90" as="geometry" />
        </mxCell>
        <mxCell id="pkJXzs30n1liZLWo8Acw-19" value="" style="shape=component;jettyWidth=8;jettyHeight=4;" vertex="1" parent="pkJXzs30n1liZLWo8Acw-18">
          <mxGeometry x="1" width="20" height="20" relative="1" as="geometry">
            <mxPoint x="-24" y="4" as="offset" />
          </mxGeometry>
        </mxCell>
        <mxCell id="pkJXzs30n1liZLWo8Acw-20" value="&lt;p style=&quot;margin:0px;margin-top:6px;text-align:center;&quot;&gt;&lt;b&gt;&amp;lt;&amp;lt;Component&amp;gt;&amp;gt;&lt;/b&gt;&lt;/p&gt;&lt;p style=&quot;margin:0px;margin-top:6px;text-align:center;&quot;&gt;&lt;b&gt;Membership managment&lt;/b&gt;&lt;/p&gt;" style="align=left;overflow=fill;html=1;dropTarget=0;whiteSpace=wrap;" vertex="1" parent="1">
          <mxGeometry x="500" y="100" width="200" height="92" as="geometry" />
        </mxCell>
        <mxCell id="pkJXzs30n1liZLWo8Acw-21" value="" style="shape=component;jettyWidth=8;jettyHeight=4;" vertex="1" parent="pkJXzs30n1liZLWo8Acw-20">
          <mxGeometry x="1" width="20" height="20" relative="1" as="geometry">
            <mxPoint x="-24" y="4" as="offset" />
          </mxGeometry>
        </mxCell>
        <mxCell id="pkJXzs30n1liZLWo8Acw-23" value="&lt;p style=&quot;margin:0px;margin-top:6px;text-align:center;&quot;&gt;&lt;b&gt;&amp;lt;&amp;lt;Component&amp;gt;&amp;gt;&lt;/b&gt;&lt;/p&gt;&lt;p style=&quot;margin:0px;margin-top:6px;text-align:center;&quot;&gt;&lt;b&gt;Billing&lt;/b&gt;&lt;/p&gt;" style="align=left;overflow=fill;html=1;dropTarget=0;whiteSpace=wrap;" vertex="1" parent="1">
          <mxGeometry x="720" y="100" width="180" height="90" as="geometry" />
        </mxCell>
        <mxCell id="pkJXzs30n1liZLWo8Acw-24" value="" style="shape=component;jettyWidth=8;jettyHeight=4;" vertex="1" parent="pkJXzs30n1liZLWo8Acw-23">
          <mxGeometry x="1" width="20" height="20" relative="1" as="geometry">
            <mxPoint x="-24" y="4" as="offset" />
          </mxGeometry>
        </mxCell>
        <mxCell id="pkJXzs30n1liZLWo8Acw-25" value="&lt;p style=&quot;margin:0px;margin-top:6px;text-align:center;&quot;&gt;&lt;b&gt;&amp;lt;&amp;lt;Component&amp;gt;&amp;gt;&lt;/b&gt;&lt;/p&gt;&lt;p style=&quot;margin:0px;margin-top:6px;text-align:center;&quot;&gt;&lt;b&gt;Insurance quotes&lt;/b&gt;&lt;/p&gt;" style="align=left;overflow=fill;html=1;dropTarget=0;whiteSpace=wrap;" vertex="1" parent="1">
          <mxGeometry x="301" y="210" width="180" height="90" as="geometry" />
        </mxCell>
        <mxCell id="pkJXzs30n1liZLWo8Acw-26" value="" style="shape=component;jettyWidth=8;jettyHeight=4;" vertex="1" parent="pkJXzs30n1liZLWo8Acw-25">
          <mxGeometry x="1" width="20" height="20" relative="1" as="geometry">
            <mxPoint x="-24" y="4" as="offset" />
          </mxGeometry>
        </mxCell>
        <mxCell id="pkJXzs30n1liZLWo8Acw-27" value="&lt;p style=&quot;margin:0px;margin-top:6px;text-align:center;&quot;&gt;&lt;b&gt;&amp;lt;&amp;lt;Component&amp;gt;&amp;gt;&lt;/b&gt;&lt;/p&gt;&lt;p style=&quot;margin:0px;margin-top:6px;text-align:center;&quot;&gt;&lt;b&gt;Policy Managment&lt;/b&gt;&lt;/p&gt;" style="align=left;overflow=fill;html=1;dropTarget=0;whiteSpace=wrap;" vertex="1" parent="1">
          <mxGeometry x="510" y="210" width="180" height="90" as="geometry" />
        </mxCell>
        <mxCell id="pkJXzs30n1liZLWo8Acw-28" value="" style="shape=component;jettyWidth=8;jettyHeight=4;" vertex="1" parent="pkJXzs30n1liZLWo8Acw-27">
          <mxGeometry x="1" width="20" height="20" relative="1" as="geometry">
            <mxPoint x="-24" y="4" as="offset" />
          </mxGeometry>
        </mxCell>
        <mxCell id="pkJXzs30n1liZLWo8Acw-29" value="&lt;p style=&quot;margin:0px;margin-top:6px;text-align:center;&quot;&gt;&lt;b&gt;&amp;lt;&amp;lt;Component&amp;gt;&amp;gt;&lt;/b&gt;&lt;/p&gt;&lt;p style=&quot;margin:0px;margin-top:6px;text-align:center;&quot;&gt;&lt;b&gt;Pricing Calculator&lt;/b&gt;&lt;/p&gt;" style="align=left;overflow=fill;html=1;dropTarget=0;whiteSpace=wrap;" vertex="1" parent="1">
          <mxGeometry x="720" y="210" width="180" height="90" as="geometry" />
        </mxCell>
        <mxCell id="pkJXzs30n1liZLWo8Acw-30" value="" style="shape=component;jettyWidth=8;jettyHeight=4;" vertex="1" parent="pkJXzs30n1liZLWo8Acw-29">
          <mxGeometry x="1" width="20" height="20" relative="1" as="geometry">
            <mxPoint x="-24" y="4" as="offset" />
          </mxGeometry>
        </mxCell>
        <mxCell id="pkJXzs30n1liZLWo8Acw-33" value="«Web App»&lt;br&gt;&lt;b&gt;Public website&lt;/b&gt;" style="html=1;whiteSpace=wrap;" vertex="1" parent="1">
          <mxGeometry x="165" y="130" width="110" height="50" as="geometry" />
        </mxCell>
        <mxCell id="pkJXzs30n1liZLWo8Acw-34" value="&amp;lt;&amp;lt;Web APP&amp;gt;&amp;gt;&lt;br&gt;adminstration webapp" style="html=1;whiteSpace=wrap;" vertex="1" parent="1">
          <mxGeometry x="165" y="200" width="110" height="50" as="geometry" />
        </mxCell>
        <mxCell id="pkJXzs30n1liZLWo8Acw-35" value="&amp;lt;&amp;lt;Web App&amp;gt;&amp;gt;&lt;br&gt;Agents webapp" style="html=1;whiteSpace=wrap;" vertex="1" parent="1">
          <mxGeometry x="165" y="340" width="110" height="50" as="geometry" />
        </mxCell>
        <mxCell id="pkJXzs30n1liZLWo8Acw-36" value="&amp;lt;&amp;lt;web App&amp;gt;&amp;gt;&lt;br&gt;Members webapp" style="html=1;whiteSpace=wrap;" vertex="1" parent="1">
          <mxGeometry x="165" y="270" width="110" height="50" as="geometry" />
        </mxCell>
        <mxCell id="pkJXzs30n1liZLWo8Acw-37" value="&amp;lt;&amp;lt;Web App&amp;gt;&amp;gt;&lt;br&gt;Reporting webapp" style="html=1;whiteSpace=wrap;" vertex="1" parent="1">
          <mxGeometry x="165" y="410" width="110" height="50" as="geometry" />
        </mxCell>
        <mxCell id="pkJXzs30n1liZLWo8Acw-38" value="&amp;lt;&amp;lt;Mobile App&amp;gt;&amp;gt;&lt;br&gt;Sales Agents" style="html=1;whiteSpace=wrap;" vertex="1" parent="1">
          <mxGeometry x="165" y="500" width="110" height="50" as="geometry" />
        </mxCell>
        <mxCell id="pkJXzs30n1liZLWo8Acw-39" value="&amp;lt;&amp;lt;Mobile App&amp;gt;&amp;gt;&lt;br&gt;Customer App&lt;br&gt;" style="html=1;whiteSpace=wrap;" vertex="1" parent="1">
          <mxGeometry x="165" y="560" width="110" height="50" as="geometry" />
        </mxCell>
        <mxCell id="pkJXzs30n1liZLWo8Acw-40" value="&lt;font color=&quot;#fcfcfc&quot;&gt;&amp;lt;&amp;lt;Subsystem&amp;gt;&amp;gt;&lt;/font&gt;&amp;gt;&amp;gt;" style="text;align=center;fontStyle=1;verticalAlign=middle;spacingLeft=3;spacingRight=3;strokeColor=none;rotatable=0;points=[[0,0.5],[1,0.5]];portConstraint=eastwest;html=1;" vertex="1" parent="1">
          <mxGeometry x="550" y="60" width="80" height="26" as="geometry" />
        </mxCell>
        <mxCell id="pkJXzs30n1liZLWo8Acw-41" value="&lt;font color=&quot;#fcfcfc&quot;&gt;Insurance&lt;/font&gt; &lt;font color=&quot;#fcfcfc&quot;&gt;Services&lt;/font&gt;" style="text;html=1;strokeColor=none;fillColor=none;align=center;verticalAlign=middle;whiteSpace=wrap;rounded=0;" vertex="1" parent="1">
          <mxGeometry x="540" y="80" width="90" height="20" as="geometry" />
        </mxCell>
        <mxCell id="pkJXzs30n1liZLWo8Acw-42" value="" style="rounded=0;whiteSpace=wrap;html=1;fillColor=#000000;" vertex="1" parent="1">
          <mxGeometry x="305.5" y="340" width="604.5" height="210" as="geometry" />
        </mxCell>
        <mxCell id="pkJXzs30n1liZLWo8Acw-43" value="&lt;font color=&quot;#fcfcfc&quot;&gt;&amp;lt;&amp;lt;subsystem&amp;gt;&amp;gt;&lt;br&gt;Web contents managment services&lt;br&gt;&lt;/font&gt;" style="text;html=1;strokeColor=none;fillColor=none;align=center;verticalAlign=middle;whiteSpace=wrap;rounded=0;" vertex="1" parent="1">
          <mxGeometry x="475" y="340" width="250" height="30" as="geometry" />
        </mxCell>
        <mxCell id="pkJXzs30n1liZLWo8Acw-45" value="&lt;p style=&quot;margin:0px;margin-top:6px;text-align:center;&quot;&gt;&lt;b&gt;Component&lt;/b&gt;&lt;/p&gt;&lt;p style=&quot;margin:0px;margin-top:6px;text-align:center;&quot;&gt;&lt;b&gt;CMS&lt;/b&gt;&lt;/p&gt;" style="align=left;overflow=fill;html=1;dropTarget=0;whiteSpace=wrap;" vertex="1" parent="1">
          <mxGeometry x="310" y="380" width="150" height="70" as="geometry" />
        </mxCell>
        <mxCell id="pkJXzs30n1liZLWo8Acw-46" value="" style="shape=component;jettyWidth=8;jettyHeight=4;" vertex="1" parent="pkJXzs30n1liZLWo8Acw-45">
          <mxGeometry x="1" width="20" height="20" relative="1" as="geometry">
            <mxPoint x="-24" y="4" as="offset" />
          </mxGeometry>
        </mxCell>
        <mxCell id="pkJXzs30n1liZLWo8Acw-47" value="&lt;p style=&quot;margin:0px;margin-top:6px;text-align:center;&quot;&gt;&lt;b&gt;Component&lt;/b&gt;&lt;/p&gt;&lt;p style=&quot;margin:0px;margin-top:6px;text-align:center;&quot;&gt;&lt;b&gt;Accounts managment&lt;/b&gt;&lt;/p&gt;" style="align=left;overflow=fill;html=1;dropTarget=0;whiteSpace=wrap;" vertex="1" parent="1">
          <mxGeometry x="517.75" y="380" width="152.25" height="70" as="geometry" />
        </mxCell>
        <mxCell id="pkJXzs30n1liZLWo8Acw-48" value="" style="shape=component;jettyWidth=8;jettyHeight=4;" vertex="1" parent="pkJXzs30n1liZLWo8Acw-47">
          <mxGeometry x="1" width="20" height="20" relative="1" as="geometry">
            <mxPoint x="-24" y="4" as="offset" />
          </mxGeometry>
        </mxCell>
        <mxCell id="pkJXzs30n1liZLWo8Acw-49" value="&lt;p style=&quot;margin:0px;margin-top:6px;text-align:center;&quot;&gt;&lt;b&gt;Component&lt;/b&gt;&lt;/p&gt;&lt;hr/&gt;&lt;p style=&quot;margin:0px;margin-left:8px;&quot;&gt;+ Attribute1: Type&lt;br/&gt;+ Attribute2: Type&lt;/p&gt;" style="align=left;overflow=fill;html=1;dropTarget=0;whiteSpace=wrap;" vertex="1" parent="1">
          <mxGeometry x="720" y="375" width="155" height="80" as="geometry" />
        </mxCell>
        <mxCell id="pkJXzs30n1liZLWo8Acw-50" value="" style="shape=component;jettyWidth=8;jettyHeight=4;" vertex="1" parent="pkJXzs30n1liZLWo8Acw-49">
          <mxGeometry x="1" width="20" height="20" relative="1" as="geometry">
            <mxPoint x="-24" y="4" as="offset" />
          </mxGeometry>
        </mxCell>
      </root>
    </mxGraphModel>
  </diagram>
</mxfile>
